<?xml version="1.0" standalone="no"?><!DOCTYPE svg PUBLIC "-//W3C//DTD SVG 1.1//EN" "http://www.w3.org/Graphics/SVG/1.1/DTD/svg11.dtd"><svg t="1551080214631" class="icon" style="" viewBox="0 0 1024 1024" version="1.1" xmlns="http://www.w3.org/2000/svg" p-id="4715" xmlns:xlink="http://www.w3.org/1999/xlink" width="200" height="200"><defs><style type="text/css"></style></defs><path d="M324.50029297 361.99970703h337.5V399.5h-337.5v-37.50029297z m0 112.5h262.49941406V512H324.50029297v-37.50029297z m0 112.5h262.49941406V624.5H324.50029297v-37.50029297z m0-412.5375c0-20.7 16.83720703-37.4625 37.31220703-37.4625h300.375c20.5875 0 37.31220703 16.83808594 37.31220703 37.4625v37.575a37.48095703 37.48095703 0 0 1-37.31220703 37.4625H361.8125c-20.5875 0-37.31220703-16.83720703-37.31220703-37.4625v-37.575z m-112.5 712.53808594h599.99941406c20.8125 0 37.50029297-16.83808594 37.50029297-37.59433594v-637.3125c0-20.8125-16.83720703-37.59345703-37.61279297-37.59345703H756.25683594v37.50029297h55.63125c0.1125 0.09316406 0.15029297 637.49970703 0.1125 637.49970703H212.00029297V212.09345703c0.07470703-0.05625 57.56220703-0.09316406 57.56220703-0.09316406V174.5h-57.4875A37.575 37.575 0 0 0 174.5 212.09345703v637.3125a37.50029297 37.50029297 0 0 0 37.50029297 37.59433594z m149.99941406-675h300.00058594V174.5H361.99970703v37.50029297z" p-id="4716"></path></svg>