<?xml version="1.0" standalone="no"?><!DOCTYPE svg PUBLIC "-//W3C//DTD SVG 1.1//EN" "http://www.w3.org/Graphics/SVG/1.1/DTD/svg11.dtd"><svg t="1551080268321" class="icon" style="" viewBox="0 0 1024 1024" version="1.1" xmlns="http://www.w3.org/2000/svg" p-id="6894" xmlns:xlink="http://www.w3.org/1999/xlink" width="200" height="200"><defs><style type="text/css"></style></defs><path d="M321.697967 277.324828l-36.104209 0c-4.983813 0-9.022772 4.779678-9.022772 10.664601l0 21.337951c0 5.889298 4.038959 10.664601 9.022772 10.664601l36.104209 0c4.983813 0 9.022772-4.775303 9.022772-10.664601l0-21.337951C330.720738 282.103047 326.677405 277.324828 321.697967 277.324828L321.697967 277.324828zM727.864123 704.005103 439.031908 704.005103c-9.967625 0-18.054292 9.554981-18.054292 21.337951s8.082292 21.333576 18.054292 21.333576l288.830757 0c9.967625 0 18.054292-9.554981 18.054292-21.333576C745.91404 713.560084 737.836122 704.005103 727.864123 704.005103L727.864123 704.005103zM321.697967 490.664966l-36.104209 0c-4.983813 0-9.022772 4.775303-9.022772 10.664601l0 21.337951c0 5.893672 4.038959 10.668975 9.022772 10.668975l36.104209 0c4.983813 0 9.022772-4.775303 9.022772-10.668975l0-21.337951C330.720738 495.443185 326.677405 490.664966 321.697967 490.664966L321.697967 490.664966zM727.864123 490.664966 439.031908 490.664966c-9.967625 0-18.054292 9.554981-18.054292 21.337951s8.082292 21.333576 18.054292 21.333576l288.830757 0c9.967625 0 18.054292-9.554981 18.054292-21.333576C745.91404 500.218488 737.836122 490.664966 727.864123 490.664966L727.864123 490.664966zM763.959583 0 258.523985 0C158.825859 0 78.008771 95.508982 78.008771 213.328473l0 597.334305c0 117.822407 80.817087 213.335764 180.515213 213.335764l505.435598 0c99.690836 0 180.507923-95.508982 180.507923-213.335764L944.467506 213.324099C944.467506 95.508982 863.650419 0 763.959583 0L763.959583 0zM908.386626 810.674443c0 94.257926-64.661252 170.672985-144.415378 170.672985L258.51232 981.347428c-79.758501 0-144.415378-76.412143-144.415378-170.674443L114.096941 213.321182c0-94.257926 64.661252-170.670069 144.415378-170.670069l505.454554 0c79.758501 0 144.415378 76.412143 144.415378 170.670069l0 597.354719L908.386626 810.675901 908.386626 810.674443zM727.864123 277.324828 439.031908 277.324828c-9.967625 0-18.054292 9.546232-18.054292 21.336493 0 11.78297 8.082292 21.329202 18.054292 21.329202l288.830757 0c9.967625 0 18.054292-9.546232 18.054292-21.329202C745.91404 286.875434 737.836122 277.324828 727.864123 277.324828L727.864123 277.324828zM321.697967 704.005103l-36.104209 0c-4.983813 0-9.022772 4.775303-9.022772 10.668975l0 21.329202c0 5.893672 4.038959 10.668975 9.022772 10.668975l36.104209 0c4.983813 0 9.022772-4.775303 9.022772-10.668975l0-21.329202C330.720738 708.784781 326.677405 704.005103 321.697967 704.005103L321.697967 704.005103z" p-id="6895"></path></svg>