<?xml version="1.0" standalone="no"?><!DOCTYPE svg PUBLIC "-//W3C//DTD SVG 1.1//EN" "http://www.w3.org/Graphics/SVG/1.1/DTD/svg11.dtd"><svg t="1532960999507" class="icon" style="" viewBox="0 0 1024 1024" version="1.1" xmlns="http://www.w3.org/2000/svg" p-id="5350" xmlns:xlink="http://www.w3.org/1999/xlink" width="200" height="200"><defs><style type="text/css"></style></defs><path d="M1004.417382 354.781701 933.411465 474.830057C933.436915 474.982758 933.462366 475.160909 933.487816 475.33906L933.182414 475.237259 928.066934 483.89031C914.018451 507.66075 882.892918 515.779347 858.537125 502.061717 839.169562 491.143602 830.160209 469.714577 834.257683 449.430807L827.157091 447.572946C804.226506 325.743081 714.64198 227.505504 597.596742 192.307947L623.912197 94.07037C747.116371 130.133232 847.288159 219.565057 898.239359 335.566838L916.258065 305.077559C930.306547 281.30712 961.43208 273.163072 985.787873 286.906153 1010.143666 300.623783 1018.465865 331.011262 1004.417382 354.781701ZM820.921804 596.939874 919.312082 622.644525C884.012725 752.542088 789.745371 857.829357 667.101101 908.526055L706.217981 931.125787C729.96297 944.843418 738.107018 975.230896 724.389387 999.001336 710.671757 1022.771776 680.284278 1030.915824 656.513839 1017.172743L527.40523 942.654705C503.63479 928.911624 495.490743 898.524146 509.233823 874.753706 522.060699 852.510275 549.394159 844.69708 572.350194 854.97894L578.839982 830.775848C696.063371 802.907934 789.058217 712.661704 820.921804 596.939874ZM443.877839 176.019851 441.740027 183.985748C312.504167 207.908888 209.889165 306.83362 180.290641 433.931666L81.900363 408.227015C113.81485 274.995483 207.293249 165.890692 330.624674 112.445378L300.466247 95.037475C276.110454 80.988993 267.762805 49.83801 281.836737 25.507667 295.88522 1.151874 327.010753-7.170325 351.366546 6.878157L483.605523 83.228606C507.935866 97.277089 516.283515 128.402621 502.235032 152.758414 490.248012 173.500286 465.892219 182.484189 443.877839 176.019851ZM80.678755 549.348094 94.090984 526.646561C107.808615 503.436025 138.221544 495.495578 161.966533 508.882357 185.736973 522.294585 193.881021 551.96946 180.16339 575.154546L178.890882 577.343259C205.537189 703.957753 304.283769 803.95139 430.46561 831.870204L404.150156 930.133232C273.896291 899.873004 166.394859 810.822931 110.735382 692.556086L105.619902 701.209137C91.902271 724.394223 61.514793 732.36012 37.744353 718.947891 13.973914 705.561112 5.829866 675.886238 19.547496 652.701152L73.170961 562.047719C72.534708 556.983139 71.669403 551.99491 71.23675 546.87943L80.678755 549.348094Z" p-id="5351"></path></svg>