<?xml version="1.0" standalone="no"?><!DOCTYPE svg PUBLIC "-//W3C//DTD SVG 1.1//EN" "http://www.w3.org/Graphics/SVG/1.1/DTD/svg11.dtd"><svg t="1551080007205" class="icon" style="" viewBox="0 0 1024 1024" version="1.1" xmlns="http://www.w3.org/2000/svg" p-id="3943" xmlns:xlink="http://www.w3.org/1999/xlink" width="200" height="200"><defs><style type="text/css"></style></defs><path d="M870.4 38.4H147.2C96 38.4 51.2 83.2 51.2 134.4v723.2c0 51.2 44.8 96 96 96h723.2c51.2 0 96-44.8 96-96V608c-83.2 19.2-262.4 230.4-313.6 332.8C576 838.4 486.4 768 416 742.4l153.6-96 76.8 147.2S768 492.8 960 396.8c-6.4 70.4-25.6 134.4 6.4 211.2V134.4c0-51.2-51.2-96-96-96z m-83.2 256C768 435.2 652.8 537.6 512 537.6S256 435.2 236.8 300.8c-25.6-12.8-32-25.6-32-38.4 0-25.6 19.2-44.8 44.8-44.8s44.8 19.2 44.8 44.8c0 12.8-6.4 25.6-19.2 32 19.2 115.2 115.2 198.4 230.4 198.4s211.2-83.2 230.4-198.4c-12.8-6.4-19.2-19.2-19.2-32 0-25.6 19.2-44.8 44.8-44.8s44.8 19.2 44.8 44.8c0 12.8 0 25.6-19.2 32z" fill="#040000" p-id="3944"></path></svg>