<?xml version="1.0" standalone="no"?><!DOCTYPE svg PUBLIC "-//W3C//DTD SVG 1.1//EN" "http://www.w3.org/Graphics/SVG/1.1/DTD/svg11.dtd"><svg t="1532960768827" class="icon" style="" viewBox="0 0 1024 1024" version="1.1" xmlns="http://www.w3.org/2000/svg" p-id="3723" xmlns:xlink="http://www.w3.org/1999/xlink" width="200" height="200"><defs><style type="text/css"></style></defs><path d="M699.733333 160a154.026667 154.026667 0 0 1-7.68 46.506667 365.226667 365.226667 0 0 1 208.213334 328.96v27.306666a165.12 165.12 0 0 1 76.8 42.666667 442.453333 442.453333 0 0 0-281.6-484.266667 186.026667 186.026667 0 0 1 4.266666 38.826667zM743.68 834.56A363.52 363.52 0 0 1 298.666667 810.666667a164.693333 164.693333 0 0 1-59.733334 55.04 445.013333 445.013333 0 0 0 580.266667 13.226666 166.826667 166.826667 0 0 1-75.52-44.373333zM160 558.933333a102.4 102.4 0 0 1 11.946667 0v-24.746666a365.226667 365.226667 0 0 1 206.933333-327.68 154.026667 154.026667 0 0 1-7.68-46.506667 186.026667 186.026667 0 0 1 5.546667-42.666667 445.866667 445.866667 0 0 0-287.146667 418.133334 387.413333 387.413333 0 0 0 0 38.826666 160 160 0 0 1 70.4-15.36z" fill="#949DA6" p-id="3724"></path><path d="M160 723.2m-117.333333 0a117.333333 117.333333 0 1 0 234.666666 0 117.333333 117.333333 0 1 0-234.666666 0Z" fill="#949DA6" p-id="3725"></path><path d="M535.466667 160m-117.333334 0a117.333333 117.333333 0 1 0 234.666667 0 117.333333 117.333333 0 1 0-234.666667 0Z" fill="#949DA6" p-id="3726"></path><path d="M864 723.2m-117.333333 0a117.333333 117.333333 0 1 0 234.666666 0 117.333333 117.333333 0 1 0-234.666666 0Z" fill="#949DA6" p-id="3727"></path></svg>